<svg width="20" height="20" viewBox="0 0 20 20" fill="none" xmlns="http://www.w3.org/2000/svg">
<path d="M12.388 3.82261C13.3232 4.00472 14.1827 4.46123 14.8565 5.1337C15.5302 5.80617 15.9876 6.66402 16.1701 7.59743L12.388 3.82261ZM12.388 0C14.331 0.215439 16.1429 1.08388 17.5261 2.46272C18.9093 3.84157 19.7817 5.64887 20 7.58788L12.388 0ZM19.0425 15.214V18.0809C19.0436 18.3471 18.989 18.6105 18.8822 18.8544C18.7753 19.0983 18.6186 19.3172 18.4221 19.4971C18.2256 19.677 17.9937 19.814 17.7411 19.8993C17.4885 19.9845 17.2208 20.0162 16.9552 19.9922C14.0089 19.6727 11.1787 18.6678 8.69214 17.0584C6.37869 15.5911 4.4173 13.6335 2.94724 11.3245C1.32908 8.83138 0.322058 5.99289 0.0077716 3.03897C-0.0161554 2.7747 0.0153117 2.50836 0.100169 2.25689C0.185026 2.00543 0.321415 1.77435 0.500651 1.57838C0.679887 1.3824 0.898043 1.22582 1.14123 1.11861C1.38442 1.0114 1.64731 0.955902 1.91316 0.955652H4.78561C5.25028 0.951088 5.70076 1.11532 6.05309 1.41774C6.40541 1.72016 6.63554 2.14013 6.70057 2.59937C6.82181 3.51686 7.04665 4.41772 7.37081 5.28476C7.49963 5.62681 7.52751 5.99855 7.45115 6.35593C7.37478 6.71331 7.19738 7.04135 6.93994 7.30118L5.72394 8.51486C7.08697 10.9074 9.07173 12.8884 11.4688 14.2488L12.6848 13.0351C12.9452 12.7782 13.2738 12.6011 13.6319 12.5249C13.99 12.4486 14.3624 12.4765 14.7051 12.6051C15.5738 12.9286 16.4764 13.153 17.3957 13.274C17.8608 13.3395 18.2855 13.5733 18.5892 13.931C18.8928 14.2887 19.0542 14.7453 19.0425 15.214Z" fill="#19DA76"/>
</svg>
